<?xml version="1.0" encoding="utf-8"?>
<!-- Generator: Adobe Illustrator 22.1.0, SVG Export Plug-In . SVG Version: 6.00 Build 0)  -->
<svg version="1.1" id="Capa_1" xmlns="http://www.w3.org/2000/svg" xmlns:xlink="http://www.w3.org/1999/xlink" x="0px" y="0px"
	 viewBox="0 0 340.2 198.4" style="enable-background:new 0 0 340.2 198.4;" xml:space="preserve">
<style type="text/css">
	.st0{fill:#319C90;}
	.st1{fill:none;stroke:#525360;stroke-miterlimit:10;}
	.st2{fill:none;stroke:#525360;stroke-width:2;stroke-miterlimit:10;}
	.st3{opacity:0.25;fill:#040006;enable-background:new    ;}
	.st4{opacity:0.1;fill:#319C90;enable-background:new    ;}
	.st5{fill:#3D3C54;}
	.st6{fill:#CCCCCC;}
	.st7{fill:#FFFFFF;}
	.st8{fill:#229878;}
	.st9{fill:#E7E6E5;}
	.st10{fill:#E1AEB3;}
	.st11{fill:#2E2D40;}
	.st12{fill:#4B488D;}
	.st13{fill:#A8A7BB;}
	.st14{opacity:0.1;fill:#040006;enable-background:new    ;}
	.st15{fill:#DBD9EC;}
</style>
<path id="Trazado_30" class="st0" d="M296.9,172.8c0,0-5.3,3.2,4.4,8.1c0,0,2.1-4-0.2-7.2C300.2,172.3,298.4,171.9,296.9,172.8
	L296.9,172.8z"/>
<path id="Trazado_31" class="st1" d="M297,172.7c0,0,4.5,3.5,4.4,8.1"/>
<path id="Trazado_34" class="st2" d="M301.6,181.3c0,0-1.7-5.6,0.3-9.7c0.8-1.7,1.1-3.7,0.7-5.6c-0.2-0.9-0.5-1.8-0.8-2.6"/>
<path id="Trazado_35" class="st0" d="M303.1,160.8c-0.3,1-0.7,1.9-1.2,2.7c-0.5-0.8-1-1.7-1.2-2.7c0-0.7,0.6-1.2,1.3-1.2
	C302.5,159.7,303,160.2,303.1,160.8L303.1,160.8z"/>
<path id="Trazado_38" class="st0" d="M303.9,176c-0.9,0.3-1.9,0.5-2.9,0.6c0.3-0.9,0.8-1.8,1.4-2.6c0.6-0.4,1.3-0.2,1.7,0.4
	C304.5,174.9,304.4,175.6,303.9,176L303.9,176z"/>
<path id="Trazado_39" class="st0" d="M300,166.3c0.9,0.5,1.8,0.8,2.8,1c-0.2-1-0.6-1.9-1.1-2.8c-0.5-0.4-1.3-0.4-1.8,0.1
	C299.6,165.1,299.6,165.9,300,166.3L300,166.3z"/>
<path id="Trazado_40" class="st0" d="M298.7,172.1c1,0.2,2,0.2,3,0.1c-0.5-0.9-1.1-1.6-1.8-2.3c-0.6-0.3-1.4-0.1-1.7,0.4
	s-0.1,1.4,0.4,1.7C298.6,172,298.7,172.1,298.7,172.1L298.7,172.1z"/>
<path id="Trazado_41" class="st0" d="M298.2,177.8c0.9,0.3,1.9,0.5,2.9,0.6c-0.3-0.9-0.8-1.8-1.4-2.6c-0.5-0.4-1.3-0.4-1.8,0.1
	c-0.4,0.5-0.4,1.3,0.1,1.8C298.1,177.8,298.2,177.8,298.2,177.8L298.2,177.8z"/>
<path id="Trazado_42" class="st3" d="M303.1,160.8c-0.3,1-0.7,1.9-1.2,2.7c-0.5-0.8-1-1.7-1.2-2.7c0-0.7,0.6-1.2,1.3-1.2
	C302.5,159.7,303,160.2,303.1,160.8L303.1,160.8z"/>
<path id="Trazado_45" class="st3" d="M303.9,176c-0.9,0.3-1.9,0.5-2.9,0.6c0.3-0.9,0.8-1.8,1.4-2.6c0.6-0.4,1.3-0.2,1.7,0.4
	C304.5,174.9,304.4,175.6,303.9,176L303.9,176z"/>
<path id="Trazado_46" class="st3" d="M300,166.3c0.9,0.5,1.8,0.8,2.8,1c-0.2-1-0.6-1.9-1.1-2.8c-0.5-0.4-1.3-0.4-1.8,0.1
	C299.6,165.1,299.6,165.9,300,166.3L300,166.3z"/>
<path id="Trazado_47" class="st3" d="M298.7,172.1c1,0.2,2,0.2,3,0.1c-0.5-0.9-1.1-1.6-1.8-2.3c-0.6-0.3-1.4-0.1-1.7,0.4
	s-0.1,1.4,0.4,1.7C298.6,172,298.7,172.1,298.7,172.1L298.7,172.1z"/>
<path id="Trazado_48" class="st3" d="M298.2,177.8c0.9,0.3,1.9,0.5,2.9,0.6c-0.3-0.9-0.8-1.8-1.4-2.6c-0.5-0.4-1.3-0.4-1.8,0.1
	c-0.4,0.5-0.4,1.3,0.1,1.8C298.1,177.8,298.2,177.8,298.2,177.8L298.2,177.8z"/>
<path id="Trazado_56" class="st0" d="M302,177.9c0.9,0.3,1.9,0.5,2.9,0.6c-0.3-0.9-0.8-1.8-1.4-2.6c-0.5-0.4-1.3-0.4-1.8,0.2
	c-0.4,0.5-0.4,1.3,0.2,1.8C302,177.9,302,177.9,302,177.9L302,177.9z"/>
<ellipse id="Elipse_3" class="st0" cx="277.5" cy="182.7" rx="41.5" ry="2.6"/>
<path id="Trazado_32" class="st0" d="M236.1,173.7c0,0-5.3,3.2,4.4,8.1c0,0,2.1-4-0.2-7.2C239.4,173.3,237.6,172.9,236.1,173.7
	L236.1,173.7z"/>
<path id="Trazado_33" class="st1" d="M236.1,173.7c0,0,4.5,3.5,4.4,8.1"/>
<path id="Trazado_36" class="st0" d="M305.1,164.6c-0.7,0.6-1.6,1.2-2.5,1.6c0-1,0.1-2,0.4-2.9c0.4-0.5,1.2-0.7,1.7-0.2
	C305.3,163.4,305.4,164.1,305.1,164.6z"/>
<path id="Trazado_43" class="st3" d="M305.1,164.6c-0.7,0.6-1.6,1.2-2.5,1.6c0-1,0.1-2,0.4-2.9c0.4-0.5,1.2-0.7,1.7-0.2
	C305.3,163.4,305.4,164.1,305.1,164.6z"/>
<path id="Trazado_49" class="st2" d="M305.4,181.4c0,0-1.7-5.6,0.3-9.7c0.8-1.7,1.1-3.7,0.7-5.6c-0.2-0.9-0.4-1.8-0.8-2.6"/>
<path id="Trazado_50" class="st0" d="M306.9,160.9c-0.3,1-0.7,1.9-1.2,2.7c-0.5-0.8-1-1.7-1.2-2.7c0-0.7,0.6-1.2,1.3-1.2
	C306.4,159.8,306.9,160.3,306.9,160.9L306.9,160.9z"/>
<path id="Trazado_51" class="st0" d="M309,164.7c-0.7,0.6-1.6,1.2-2.5,1.6c0-1,0.1-2,0.4-2.9c0.4-0.5,1.2-0.7,1.7-0.2
	C309.1,163.5,309.3,164.2,309,164.7L309,164.7z"/>
<path id="Trazado_52" class="st0" d="M308.9,171.2c-1,0.2-2,0.2-3,0.1c0.5-0.9,1.1-1.6,1.8-2.3c0.6-0.3,1.4,0,1.6,0.7
	C309.6,170.2,309.4,170.9,308.9,171.2L308.9,171.2z"/>
<path id="Trazado_53" class="st0" d="M307.7,176.1c-0.9,0.3-1.9,0.5-2.9,0.6c0.3-0.9,0.8-1.8,1.4-2.6c0.6-0.4,1.4-0.2,1.7,0.4
	C308.3,175,308.2,175.7,307.7,176.1L307.7,176.1z"/>
<path id="Trazado_54" class="st0" d="M303.9,166.4c0.9,0.5,1.8,0.8,2.8,1c-0.2-1-0.6-1.9-1.1-2.8c-0.5-0.4-1.3-0.4-1.8,0.2
	C303.4,165.3,303.4,166,303.9,166.4L303.9,166.4z"/>
<path id="Trazado_37" class="st0" d="M305.1,171.1c-1,0.2-2,0.2-3,0.1c0.5-0.9,1.1-1.6,1.8-2.3c0.6-0.3,1.4,0,1.6,0.7
	C305.8,170.1,305.6,170.8,305.1,171.1L305.1,171.1z"/>
<path id="Trazado_44" class="st3" d="M305.1,171.1c-1,0.2-2,0.2-3,0.1c0.5-0.9,1.1-1.6,1.8-2.3c0.6-0.3,1.4,0,1.6,0.7
	C305.8,170.1,305.6,170.8,305.1,171.1L305.1,171.1z"/>
<path id="Trazado_55" class="st0" d="M302.5,172.2c1,0.2,2,0.2,3,0.1c-0.5-0.9-1.1-1.6-1.8-2.3c-0.6-0.3-1.4,0-1.6,0.7
	C301.8,171.2,302,171.9,302.5,172.2L302.5,172.2z"/>
<path id="Trazado_29" class="st4" d="M45.9,98.9c3.4,14.4,10.5,26.9,21.8,32.9c23.4,12.5,76.3,6.1,115.7-1.4
	c19.9-3.7,38-14.1,51.3-29.3L45.9,98.9z"/>
<path id="Trazado_57" class="st4" d="M252.7,31.1H231c-1,0-1.9-0.8-1.9-1.9c0-1,0.8-1.9,1.9-1.9h3.7c-1,0-1.9-0.8-1.9-1.9
	c0-1,0.8-1.9,1.9-1.9h-2.7c-1,0-1.9-0.8-1.9-1.9c0-1,0.8-1.9,1.9-1.9h11.3c-2.8-1.3-5.8-2.1-8.8-2.4c-30.8-4-41.8-1.3-45.7,1.4
	c-4.8,3.4-10.1,5.7-15.8,6.9c-19,3.9-54.5,8.6-86.7-1.5c-16-5-27.9,3.5-35,17.7h205.1c-0.2-3.9-1-7.7-2.5-11.3
	C253.5,31,253.1,31.1,252.7,31.1z"/>
<path id="Trazado_58" class="st4" d="M44.1,68.9c-0.8,8.4-0.5,16.8,0.8,25.1l190,6.9c5.3-6.1,9.7-12.9,13.2-20.1L44.1,68.9z
	 M119.2,86.8h-3.7c1,0,1.9,0.8,1.9,1.9c0,1-0.8,1.9-1.9,1.9c0,0,0,0,0,0H93.8c-1,0-1.9-0.8-1.9-1.9c0-1,0.8-1.9,1.9-1.9c0,0,0,0,0,0
	h3.7c-1,0-1.9-0.8-1.9-1.9c0-1,0.8-1.9,1.9-1.9h-2.7c-1,0-1.9-0.8-1.9-1.9c0-1,0.8-1.9,1.9-1.9c0,0,0,0,0,0h21.6
	c1,0,1.9,0.8,1.9,1.9c0,1-0.8,1.9-1.9,1.9c0,0,0,0,0,0h2.7c1,0,1.9,0.8,1.9,1.9C121,85.9,120.2,86.8,119.2,86.8z"/>
<path id="Trazado_59" class="st4" d="M256.4,42.1L49,47.2c-2.6,6.9-4.3,14.1-5,21.4h208.7c1.4-4.5,2.4-9,3-13.7
	C256.4,50.7,256.6,46.4,256.4,42.1z M86.2,58.6h-3.7c1,0,1.9,0.8,1.9,1.9c0,1-0.8,1.9-1.9,1.9H60.8c-1,0-1.9-0.8-1.9-1.9
	c0-1,0.8-1.9,1.9-1.9h3.7c-1,0-1.9-0.8-1.9-1.9c0-1,0.8-1.9,1.9-1.9h-2.7c-1,0-1.9-0.8-1.9-1.9c0-1,0.8-1.9,1.9-1.9h21.6
	c1,0,1.9,0.8,1.9,1.9c0,1-0.8,1.9-1.9,1.9h2.7c1,0,1.9,0.8,1.9,1.9C88,57.8,87.2,58.6,86.2,58.6z"/>
<path id="Trazado_1" class="st5" d="M93.4,135.2c-2.2,0-4.1,1.8-4.1,4.1v9.5c0,2.2,1.8,4.1,4.1,4.1h5.1c2.2,0,4.1-1.8,4.1-4.1v-9.5
	c0-2.2-1.8-4.1-4.1-4.1L93.4,135.2z"/>
<path id="Trazado_2" class="st5" d="M188.5,153.1h-5.1c-2.4,0-4.4-2-4.4-4.4v-9.5c0-2.4,2-4.4,4.4-4.4h5.1c2.4,0,4.4,2,4.4,4.4v9.5
	C192.9,151.2,191,153.1,188.5,153.1z"/>
<path id="Trazado_3" class="st6" d="M185.1,145.5H96.5c-4,0-7.3-2.4-7.3-5.3v-17l4.4-4.6h95.3l3.5,4.6v17
	C192.4,143.2,189.2,145.5,185.1,145.5z"/>
<path id="Trazado_4" class="st6" d="M188.5,127.1H94.1l-1-14.7l0.6-1.5l3.5-8.7h87.4l4.8,9.9L188.5,127.1z"/>
<path id="Trazado_5" class="st7" d="M189.3,112.1l-0.7,11.1h-20.8v-8.2l20.9-4.1L189.3,112.1z"/>
<path id="Trazado_6" class="st7" d="M114.4,114.9v8.2H94l-0.7-10.7l0.6-1.5L114.4,114.9z"/>
<path id="Trazado_7" class="st6" d="M184.1,104.7H97.8L107,74c0.8-2.6,3.2-4.4,5.9-4.4L170,69c2.8,0,5.3,1.9,6,4.6L184.1,104.7z"/>
<path id="Trazado_8" class="st7" d="M177.5,101.8l-73-0.9c-0.3,0-0.6-0.3-0.6-0.6c0-0.1,0-0.1,0-0.2l7-21.8c0.1-0.2,0.3-0.4,0.6-0.4
	h58.8c0.3,0,0.5,0.2,0.6,0.4L178,101c0.1,0.3-0.1,0.6-0.4,0.7C177.6,101.8,177.5,101.8,177.5,101.8L177.5,101.8z"/>
<path id="Trazado_9" class="st8" d="M150.8,72.8h-19.7c-0.2,0-0.3-0.2-0.4-0.4c-0.1-0.3-0.1-0.6,0-0.8l1.6-4.1
	c0.1-0.2,0.2-0.3,0.4-0.3h16.4c0.1,0,0.3,0.1,0.4,0.3l1.6,4.1c0.1,0.3,0.1,0.5,0,0.8C151.1,72.6,151,72.8,150.8,72.8z"/>
<path id="Trazado_10" class="st6" d="M97.8,104H84.9v-2.8c0-1.9,1.6-3.5,3.5-3.5h9.5V104z"/>
<path id="Trazado_11" class="st6" d="M197,104h-12.9v-6.3h9.5c1.9,0,3.5,1.6,3.5,3.5L197,104z"/>
<rect id="Rectángulo_2" x="18.2" y="159.7" transform="matrix(0.9411 -0.3381 0.3381 0.9411 -51.0878 26.9643)" class="st5" width="67.3" height="0.8"/>
<rect id="Rectángulo_3" x="229.3" y="126.5" transform="matrix(0.338 -0.9411 0.9411 0.338 1.3116 322.1508)" class="st5" width="0.8" height="67.3"/>
<path id="Trazado_12" class="st9" d="M144.5,164.9h-3.8V160h3.8V164.9z M144.5,155.1h-3.8v-4.9h3.8V155.1z"/>
<path id="Trazado_13" class="st9" d="M144.5,185.2h-3.8v-4.9h3.8V185.2z M144.5,175.4h-3.8v-4.9h3.8V175.4z"/>
<circle id="Elipse_2" class="st8" cx="140.8" cy="34" r="18.8"/>
<path id="Trazado_27" class="st7" d="M139.1,41.9l-5.6-7.2l3.3-2.5l2.7,3.4l9-9.5l3,2.9L139.1,41.9z"/>
<path id="Trazado_23" class="st5" d="M248.6,111.5l0.7,1.3c0,0,0,0.1,0,0.1c0,0,0,0,0,0l0,0l3.6,6.9c0.2,0.4,0.1,0.9-0.3,1.1
	c0,0,0,0,0,0l-4.3,2.2c-0.4,0.2-0.9,0.1-1.1-0.3c0,0,0,0,0,0l0,0l-3.4-6.7l0,0c0,0,0,0,0,0c0,0,0,0,0,0l-0.4-0.8c0,0,0,0,0,0
	c0,0,0,0,0,0l0,0l0,0L243,115l0,0c0,0,0,0-0.1,0l-0.4-0.7c0,0,0,0,0-0.1l0,0l-0.2-0.4l0,0c0,0,0,0,0,0c0,0,0,0,0,0l0,0l-0.2-0.4
	c0,0,0,0,0,0c0,0,0,0,0,0l0,0l-0.4-0.8c-0.2-0.4-0.1-0.9,0.3-1.1c0,0,0,0,0,0l4.3-2.2c0.4-0.2,0.9-0.1,1.1,0.3c0,0,0,0,0,0l1,1.9
	L248.6,111.5C248.6,111.4,248.6,111.4,248.6,111.5z"/>
<path id="Trazado_24" class="st8" d="M247.2,109.8l5.3,10.2c0.1,0.3,0,0.6-0.2,0.7c0,0,0,0,0,0l-4.1,2.1c-0.3,0.1-0.6,0-0.7-0.2l0,0
	l-5.3-10.2c-0.1-0.3,0-0.6,0.2-0.7c0,0,0,0,0,0l0,0l0.6-0.3l0,0.1c0.1,0.2,0.4,0.3,0.6,0.2l2.1-1.1c0.2-0.1,0.3-0.4,0.2-0.6l0-0.1
	l0.7-0.3C246.8,109.5,247.1,109.6,247.2,109.8L247.2,109.8z"/>
<path id="Trazado_14" class="st10" d="M257.1,182.1h-3.3l-1.6-12.8h4.9L257.1,182.1z"/>
<path id="Trazado_15" class="st11" d="M257.9,185.3h-10.7v-0.1c0-2.3,1.9-4.2,4.2-4.2h6.5V185.3z"/>
<path id="Trazado_25" class="st10" d="M248.8,122.3c1.5-0.1,2.6-1.4,2.5-2.9c0-0.2,0-0.3-0.1-0.5l8.1-5.3l-4.6-2l-7,5.3
	c-1.4,0.5-2.2,2-1.8,3.4C246.3,121.6,247.5,122.4,248.8,122.3L248.8,122.3z"/>
<path id="Trazado_20" class="st11" d="M273.7,68.3c0.1-4.6-3.6-8.4-8.2-8.5c-4.6-0.1-8.4,3.6-8.5,8.2c0,0.2,0,0.4,0,0.6
	C262.7,68.5,268.4,68.5,273.7,68.3z"/>
<path id="Trazado_16" class="st10" d="M299.9,175.8l-2.8,1.7l-7.9-10.2l4.2-2.5L299.9,175.8z"/>
<path id="Trazado_17" class="st11" d="M293.1,183.6l-0.1-0.1c-1.2-2-0.5-4.5,1.4-5.7l5.6-3.4l2.2,3.7L293.1,183.6z"/>
<path id="Trazado_18" class="st12" d="M257.9,179.5L257.9,179.5c-1.7,0-3.3-0.1-4.9-0.3c-0.6-0.1-1.3-0.1-2.1-0.2l0,0
	c-0.5-0.2-0.6-5.3-0.3-22.8c0.1-9,0.3-19.1,0.1-25.6v-0.1l0,0c5.9-5.1,13.8-7.2,21.4-5.4l0.1,0l0,0.1c3.3,5.5,8.2,13.5,13,21.2
	c10.9,17.6,14.1,22.8,13.7,23.2l0,0c-0.7,0.4-1.3,0.7-1.8,0.9c-1.9,1-3.8,1.9-5.8,2.6l-0.1,0l-0.1-0.1c-11.1-12.2-20.3-25.7-26-38.3
	c-0.7,4.3-1.5,9.9-2.3,15.8C260.3,167.5,258.6,178.7,257.9,179.5L257.9,179.5z"/>
<path id="Trazado_19" class="st11" d="M275.2,76.3c1.1-4.6,2.1-9.8,0-14.1c-1.5-2.9-6.9-3.9-10-2.9c-3.1,1.2-5.4,3.9-6.3,7.1
	c-0.9,3.2-1,6.5-0.4,9.8C264.1,76.1,269.8,76,275.2,76.3z"/>
<ellipse id="Elipse_1" class="st10" cx="265.5" cy="69.7" rx="6.6" ry="6.6"/>
<path id="Trazado_21" class="st13" d="M260.9,131.9c6.6,0,13.2,1.1,19.4,3.3c0.2-10.5-3.3-20.7-9.9-28.8l0-0.1l0-0.1
	c1.7-5,3.5-10.2,5.2-15.4l0-0.1c-1.1-4-3.6-8.1-7.4-12.4c-0.9-0.9-2.3-1-3.2-0.2c-6.8,6.3-10.4,15.3-9.7,24.6v0l0,0
	c-3,10.2-4.1,15.5-5.1,20.1c-0.7,3.4-1.3,6.3-2.5,10.5C251.9,132.4,256.4,131.9,260.9,131.9L260.9,131.9z"/>
<path id="Trazado_22" class="st14" d="M270.7,99.6l-9.8,21.4l-5.6-5.7L270.7,99.6z"/>
<path id="Trazado_26" class="st15" d="M256.6,118.5L256.6,118.5c-2-1.5-4.2-3-6.2-4.4l-0.1-0.1l0.1-0.1c4.4-5.2,8.8-10.6,13.1-15.8
	l0,0l0,0l0,0l0,0l0,0l-0.1,0L262,87.8c-1.3-2.2-1.3-5,0.1-7.1c1.7-2.3,4.8-3.1,7.3-1.7c1.2,0.8,2,2.1,2.1,3.6
	c0.2,1.3-0.3,2.6-1.1,3.5c0.5,5,0.7,10,0.6,15.1v0l0,0C266.5,107.1,261.5,112.8,256.6,118.5L256.6,118.5z"/>
</svg>
